<?xml version="1.0" standalone="no"?>
<!DOCTYPE svg PUBLIC "-//W3C//DTD SVG 20010904//EN"
 "http://www.w3.org/TR/2001/REC-SVG-20010904/DTD/svg10.dtd">
<svg version="1.0" xmlns="http://www.w3.org/2000/svg"
 width="512.000000pt" height="512.000000pt" viewBox="0 0 512.000000 512.000000"
 preserveAspectRatio="xMidYMid meet">
<metadata>
Created by potrace 1.11, written by Peter Selinger 2001-2013
</metadata>
<g transform="translate(0.000000,512.000000) scale(0.100000,-0.100000)"
fill="#000000" stroke="none">
<path d="M2320 4949 c-36 -5 -85 -11 -110 -15 -25 -3 -56 -8 -70 -10 -14 -2
-72 -15 -130 -29 -58 -14 -113 -27 -123 -30 -84 -20 -286 -101 -422 -170 -227
-115 -409 -248 -600 -440 -395 -394 -625 -874 -692 -1445 -12 -102 -9 -456 6
-550 7 -47 15 -101 17 -120 8 -56 65 -280 86 -340 135 -377 301 -647 560 -915
198 -205 424 -366 689 -492 145 -70 365 -147 472 -167 15 -2 37 -8 48 -11 12
-4 31 -8 42 -10 12 -2 49 -8 82 -14 108 -20 187 -25 375 -25 164 -1 330 8 363
19 7 2 28 6 47 9 135 21 410 96 439 120 8 6 16 9 18 8 6 -6 109 37 208 87 230
114 428 255 610 435 213 210 342 387 470 646 102 204 208 543 230 730 3 30 10
84 14 120 9 66 6 427 -3 490 -3 19 -8 51 -11 70 -35 243 -105 473 -210 694
-209 441 -567 824 -991 1058 -158 87 -337 164 -494 210 -86 25 -272 65 -336
73 -28 3 -61 8 -75 11 -39 9 -438 11 -509 3z"/>
</g>
</svg>
